<?xml version="1.0" encoding="utf-8"?><svg viewBox="0 0 54 56" xmlns="http://www.w3.org/2000/svg" xmlns:xlink="http://www.w3.org/1999/xlink"><style>:root>svg{display:none}:root>svg:target{display:block}</style><svg viewBox="0 0 6 11" id="arr-left-2" xmlns="http://www.w3.org/2000/svg"><path d="M.413 5.226L5.04.613a.388.388 0 01.547.549L1.236 5.5l4.35 4.338a.387.387 0 11-.547.549L.413 5.774a.387.387 0 010-.548z"/></svg><svg viewBox="0 0 20 19" id="arr-right" xmlns="http://www.w3.org/2000/svg"><path d="M19.586 8.85L1.015.28a.718.718 0 00-.855.2.71.71 0 00-.017.876L6.25 9.5.143 17.642a.712.712 0 00.572 1.143.708.708 0 00.298-.066l18.571-8.571a.713.713 0 00.002-1.298z"/></svg><svg viewBox="0 0 10 11" id="arr-right-2" xmlns="http://www.w3.org/2000/svg"><g clip-path="url(#ca)"><path d="M7.587 5.226L2.96.613a.388.388 0 00-.547.549L6.764 5.5l-4.35 4.338a.387.387 0 10.547.549l4.626-4.613a.387.387 0 000-.548z"/></g><defs><clipPath id="ca"><path transform="translate(0 .5)" d="M0 0h10v10H0z"/></clipPath></defs></svg><svg viewBox="0 0 40 40" id="facebook" xmlns="http://www.w3.org/2000/svg"><path fill-rule="evenodd" clip-rule="evenodd" d="M20 0C8.954 0 0 8.954 0 20s8.954 20 20 20 20-8.954 20-20S31.046 0 20 0zm2.085 20.878V31.76h-4.502V20.879h-2.25v-3.75h2.25v-2.251c0-3.059 1.27-4.878 4.878-4.878h3.004v3.75h-1.878c-1.404 0-1.497.524-1.497 1.502l-.005 1.877h3.401l-.398 3.75h-3.003z"/></svg><svg viewBox="0 0 40 40" id="instagram" xmlns="http://www.w3.org/2000/svg"><path fill-rule="evenodd" clip-rule="evenodd" d="M20 0C8.954 0 0 8.954 0 20s8.954 20 20 20 20-8.954 20-20S31.046 0 20 0zm-4.397 9.398c1.138-.052 1.501-.065 4.398-.065h-.003c2.897 0 3.26.013 4.397.065 1.136.052 1.912.232 2.592.495a5.212 5.212 0 011.889 1.23 5.235 5.235 0 011.23 1.89c.263.678.443 1.453.496 2.589.051 1.138.065 1.501.065 4.398s-.014 3.26-.065 4.398c-.053 1.135-.233 1.91-.495 2.588a5.237 5.237 0 01-1.232 1.89 5.22 5.22 0 01-1.888 1.23c-.678.265-1.454.444-2.59.496-1.138.052-1.5.065-4.397.065-2.897 0-3.26-.013-4.398-.065-1.136-.052-1.91-.231-2.59-.495a5.224 5.224 0 01-1.888-1.231 5.228 5.228 0 01-1.23-1.89c-.264-.678-.444-1.453-.496-2.589-.052-1.137-.065-1.5-.065-4.397 0-2.897.014-3.26.065-4.398.05-1.136.23-1.91.495-2.59a5.237 5.237 0 011.231-1.889 5.223 5.223 0 011.89-1.23c.678-.263 1.453-.443 2.589-.495z"/><path fill-rule="evenodd" clip-rule="evenodd" d="M19.044 11.255h.957c2.848 0 3.185.01 4.31.061 1.04.047 1.605.221 1.98.367a3.31 3.31 0 011.226.798c.374.373.605.729.799 1.227.146.375.32.94.367 1.98.051 1.124.062 1.462.062 4.309 0 2.846-.01 3.184-.062 4.309-.048 1.04-.221 1.604-.367 1.98a3.298 3.298 0 01-.799 1.225 3.299 3.299 0 01-1.225.798c-.376.146-.94.32-1.98.367-1.125.052-1.463.063-4.311.063s-3.186-.012-4.31-.063c-1.04-.048-1.605-.221-1.981-.367a3.306 3.306 0 01-1.227-.798 3.306 3.306 0 01-.798-1.226c-.146-.376-.32-.94-.367-1.98-.051-1.125-.062-1.462-.062-4.311 0-2.848.01-3.184.062-4.309.047-1.04.221-1.604.367-1.98.193-.498.425-.854.798-1.227a3.31 3.31 0 011.227-.798c.376-.147.94-.32 1.98-.368.985-.044 1.366-.058 3.354-.06v.003zm6.65 1.771a1.28 1.28 0 100 2.561 1.28 1.28 0 000-2.561zM14.525 20a5.478 5.478 0 1110.955 0 5.478 5.478 0 01-10.956 0z"/><path fill-rule="evenodd" clip-rule="evenodd" d="M20 16.443a3.556 3.556 0 110 7.112 3.556 3.556 0 010-7.112z"/></svg><svg viewBox="0 0 16 17" id="location-pin" xmlns="http://www.w3.org/2000/svg"><g clip-path="url(#fa)"><path d="M8 .5a5.974 5.974 0 00-5.966 5.969c0 4.904 5.372 9.692 5.601 9.893a.551.551 0 00.73 0c.229-.201 5.602-4.99 5.602-9.893A5.974 5.974 0 008 .5zm0 4.293a1.67 1.67 0 011.658 1.676A1.67 1.67 0 018 8.145a1.668 1.668 0 01-1.657-1.676c0-.924.743-1.676 1.657-1.676z"/></g><defs><clipPath id="fa"><path transform="translate(0 .5)" d="M0 0h16v16H0z"/></clipPath></defs></svg><svg viewBox="0 0 54 56" id="logo" xmlns="http://www.w3.org/2000/svg"><ellipse cx="24.038" cy="24" rx="24.038" ry="24"/><g filter="url(#ga)"><ellipse cx="37.019" cy="35.04" rx="12.981" ry="12.96"/></g><defs><filter id="ga" x="20.038" y="22.08" width="33.962" height="33.92" filterUnits="userSpaceOnUse" color-interpolation-filters="sRGB"><feFlood flood-opacity="0" result="BackgroundImageFix"/><feColorMatrix in="SourceAlpha" values="0 0 0 0 0 0 0 0 0 0 0 0 0 0 0 0 0 0 127 0" result="hardAlpha"/><feOffset dy="4"/><feGaussianBlur stdDeviation="2"/><feColorMatrix values="0 0 0 0 0.224444 0 0 0 0 0.272708 0 0 0 0 0.533333 0 0 0 0.18 0"/><feBlend in2="BackgroundImageFix" result="effect1_dropShadow_2_121"/><feBlend in="SourceGraphic" in2="effect1_dropShadow_2_121" result="shape"/></filter></defs></svg><svg viewBox="0 0 14 15" id="phone-call" xmlns="http://www.w3.org/2000/svg"><g clip-path="url(#ha)"><path d="M13.619 10.775L11.665 8.82c-.698-.698-1.884-.419-2.163.488-.21.628-.907.977-1.535.838-1.396-.35-3.28-2.163-3.628-3.629-.21-.628.209-1.326.837-1.535.907-.279 1.186-1.465.488-2.163L3.711.866c-.559-.488-1.396-.488-1.884 0L.5 2.192c-1.325 1.396.14 5.094 3.42 8.373 3.28 3.28 6.978 4.815 8.373 3.42l1.326-1.326c.488-.559.488-1.396 0-1.884z"/></g><defs><clipPath id="ha"><path transform="translate(0 .5)" d="M0 0h14v14H0z"/></clipPath></defs></svg><svg viewBox="0 0 20 20" id="refresh" xmlns="http://www.w3.org/2000/svg"><g clip-path="url(#ia)"><path d="M17.698 3.729v1.84a8.898 8.898 0 00-4.833-3.976 8.863 8.863 0 00-2.863-.472 8.855 8.855 0 00-5.534 1.936A8.898 8.898 0 001.37 7.916a1.151 1.151 0 002.238.538 6.607 6.607 0 014.185-4.65 6.56 6.56 0 012.21-.38c1.439 0 2.806.456 3.952 1.32a6.648 6.648 0 011.867 2.194h-1.275a1.151 1.151 0 000 2.302h4.302a1.15 1.15 0 001.15-1.15V3.728a1.151 1.151 0 10-2.301 0zM1.151 17.42a1.15 1.15 0 001.151-1.15v-1.85a8.89 8.89 0 002.799 2.982 8.84 8.84 0 004.894 1.474h.011a8.855 8.855 0 005.526-1.935 8.897 8.897 0 003.098-4.86 1.151 1.151 0 00-2.239-.538 6.607 6.607 0 01-2.295 3.598A6.55 6.55 0 0110 16.575a6.545 6.545 0 01-3.627-1.09 6.588 6.588 0 01-2.192-2.425h1.272a1.151 1.151 0 000-2.302H1.151C.515 10.758 0 11.274 0 11.91v4.36a1.15 1.15 0 001.151 1.152z"/></g><defs><clipPath id="ia"><path d="M0 0h20v20H0z"/></clipPath></defs></svg><svg viewBox="0 0 20 20" id="search" xmlns="http://www.w3.org/2000/svg"><path d="M19.878 18.7l-5.81-5.81a7.876 7.876 0 001.765-4.973C15.833 3.55 12.282 0 7.917 0 3.55 0 0 3.551 0 7.917c0 4.365 3.551 7.916 7.917 7.916a7.876 7.876 0 004.973-1.765l5.81 5.81a.417.417 0 00.589 0l.589-.59a.417.417 0 000-.588zM7.917 14.167a6.257 6.257 0 01-6.25-6.25 6.257 6.257 0 016.25-6.25 6.257 6.257 0 016.25 6.25 6.257 6.257 0 01-6.25 6.25z"/></svg><svg viewBox="0 0 40 40" id="twitter" xmlns="http://www.w3.org/2000/svg"><path fill-rule="evenodd" clip-rule="evenodd" d="M20 0C8.954 0 0 8.954 0 20s8.954 20 20 20 20-8.954 20-20S31.046 0 20 0zm-.557 16.948l-.042-.692c-.126-1.793.98-3.432 2.728-4.067.643-.226 1.735-.255 2.448-.057.28.085.811.367 1.19.622l.685.466.755-.24c.42-.128.98-.34 1.231-.48.238-.128.448-.198.448-.156 0 .24-.518 1.06-.951 1.511-.588.636-.42.692.77.269.713-.24.727-.24.587.028-.084.141-.518.635-.98 1.087-.783.777-.825.862-.825 1.512 0 1.002-.476 3.093-.951 4.237-.882 2.146-2.77 4.364-4.659 5.48-2.658 1.567-6.197 1.963-9.177 1.045-.993-.311-2.7-1.102-2.7-1.243 0-.043.518-.1 1.147-.113a7.876 7.876 0 003.75-1.045l.755-.452-.868-.297c-1.23-.424-2.336-1.398-2.616-2.316-.084-.297-.056-.31.728-.31l.811-.015-.685-.325c-.812-.41-1.553-1.101-1.917-1.808-.266-.508-.601-1.793-.503-1.892.027-.043.321.042.657.155.965.353 1.091.268.532-.325-1.05-1.073-1.371-2.669-.868-4.18l.238-.678.923.918c1.889 1.85 4.113 2.952 6.66 3.277l.699.084z"/></svg><svg viewBox="0 0 40 40" id="vk" xmlns="http://www.w3.org/2000/svg"><path fill-rule="evenodd" clip-rule="evenodd" d="M20 0C8.954 0 0 8.954 0 20s8.954 20 20 20 20-8.954 20-20S31.046 0 20 0zm1.628 26.314c-.197.207-.582.25-.582.25h-1.275s-2.813.165-5.291-2.366c-2.702-2.763-5.089-8.243-5.089-8.243s-.137-.36.012-.533c.168-.196.626-.208.626-.208l3.048-.02s.287.047.492.195c.17.123.265.352.265.352s.493 1.223 1.145 2.329c1.274 2.16 1.866 2.632 2.298 2.4.63-.337.442-3.053.442-3.053s.011-.985-.317-1.425c-.255-.34-.735-.439-.947-.467-.172-.022.11-.413.475-.588.549-.264 1.517-.279 2.662-.268.892.01 1.149.064 1.497.147.809.191.784.805.73 2.13-.017.397-.036.857-.036 1.388 0 .12-.004.247-.007.377-.02.68-.04 1.457.415 1.746.234.148.804.022 2.233-2.359.677-1.128 1.184-2.455 1.184-2.455s.112-.236.284-.338c.176-.103.414-.071.414-.071l3.207-.02s.965-.114 1.12.314c.164.448-.36 1.495-1.67 3.21-1.244 1.626-1.849 2.225-1.793 2.755.04.387.434.737 1.188 1.424 1.576 1.436 1.998 2.191 2.1 2.373a.893.893 0 00.019.033c.706 1.15-.784 1.24-.784 1.24l-2.85.04s-.611.118-1.416-.425c-.422-.284-.835-.748-1.227-1.19-.6-.675-1.154-1.298-1.627-1.151-.794.248-.77 1.927-.77 1.927s.006.359-.175.55z"/></svg></svg>